{"title":"The Tale of Despereaux  (PSP + Ipod touch + Zune)","uid":5661550,"size":373354929,"categoryP":"video","categoryS":"handheld","magnet":"?xt=urn:btih:2282e215125739eebf7c9468a131c03cd46fd611&amp;dn=The+Tale+of+Despereaux++%28PSP+%2B+Ipod+touch+%2B+Zune%29&amp;tr=udp%3A%2F%2Ftracker.openbittorrent.com%3A80&amp;tr=udp%3A%2F%2Fopen.demonii.com%3A1337&amp;tr=udp%3A%2F%2Ftracker.coppersurfer.tk%3A6969&amp;tr=udp%3A%2F%2Fexodus.desync.com%3A6969","seeders":0,"leechers":0,"uploader":"on.off.on","files":-1,"time":1277993406,"description":"The Tale of Despereaux &lt;a href=&quot;\nhttp://www.imdb.com/title/tt0420238/&quot; rel=&quot;nofollow&quot; target=&quot;_NEW&quot;&gt;\nhttp://www.imdb.com/title/tt0420238/&lt;/a&gt;\n\n\nSource  :\n\nThe Tale of Despereaux (2008) 1080p BluRay DTS x264-DON\n\nInfo :\nID                               : 1\nFormat                           : AVC\nFormat/Info                      : Advanced Video Codec\nFormat profile                   : &lt;a class=&quot;__cf_email__&quot; href=&quot;/cdn-cgi/l/email-protection&quot; data-cfemail=&quot;f3b19280969f9a9d96b3bfc1ddc3&quot;&gt;[email&amp;#160;protected]&lt;/a&gt;&lt;script cf-hash='f9e31' type=&quot;text/javascript&quot;&gt;\n/* &lt;![CDATA[ */!function(){try{var t=&quot;currentScript&quot;in document?document.currentScript:function(){for(var t=document.getElementsByTagName(&quot;script&quot;),e=t.length;e--;)if(t[e].getAttribute(&quot;cf-hash&quot;))return t[e]}();if(t&amp;&amp;t.previousSibling){var e,r,n,i,c=t.previousSibling,a=c.getAttribute(&quot;data-cfemail&quot;);if(a){for(e=&quot;&quot;,r=parseInt(a.substr(0,2),16),n=2;a.length-n;n+=2)i=parseInt(a.substr(n,2),16)^r,e+=String.fromCharCode(i);e=document.createTextNode(e),c.parentNode.replaceChild(e,c)}}}catch(u){}}();/* ]]&gt; */&lt;/script&gt;\nFormat settings, CABAC           : No\nFormat settings, ReFrames        : 3 frames\nCodec ID                         : avc1\nCodec ID/Info                    : Advanced Video Coding\nDuration                         : 1h 33mn\nBit rate mode                    : Variable\nBit rate                         : 400 Kbps\nWidth                            : 480 pixels\nHeight                           : 208 pixels\nDisplay aspect ratio             : 2.35:1\nFrame rate mode                  : Variable\nFrame rate                       : 23.976 fps\nMinimum frame rate               : 23.810 fps\nMaximum frame rate               : 24.390 fps\nColor space                      : YUV\nChroma subsampling               : 4:2:0\nBit depth                        : 8 bits\nScan type                        : Progressive\nBits/(Pixel*Frame)               : 0.167\nStream size                      : 268 MiB (75%)\nWriting library                  : x264 core 79\n\nID                               : 2\nFormat                           : AAC\nFormat/Info                      : Advanced Audio Codec\nFormat version                   : Version 4\nFormat profile                   : LC\nFormat settings, SBR             : No\nCodec ID                         : 40\nDuration                         : 1h 33mn\nBit rate mode                    : Variable\nBit rate                         : 128 Kbps\nMaximum bit rate                 : 240 Kbps\nChannel(s)                       : 2 channels\nChannel positions                : Front: L R\nSampling rate                    : 48.0 KHz\nStream size                      : 85.5 MiB (24%)\nLanguage                         : English\n\nScreens : &lt;a href=&quot;\nhttp://img28.imageshack.us/img28/9082/vlcsnap00001t.png&quot; rel=&quot;nofollow&quot; target=&quot;_NEW&quot;&gt;\nhttp://img28.imageshack.us/img28/9082/vlcsnap00001t.png&lt;/a&gt; &lt;a href=&quot;\nhttp://img692.imageshack.us/img692/9899/vlcsnap00002tw.png&quot; rel=&quot;nofollow&quot; target=&quot;_NEW&quot;&gt;\nhttp://img692.imageshack.us/img692/9899/vlcsnap00002tw.png&lt;/a&gt; &lt;a href=&quot;\nhttp://img231.imageshack.us/img231/5117/vlcsnap00003li.png&quot; rel=&quot;nofollow&quot; target=&quot;_NEW&quot;&gt;\nhttp://img231.imageshack.us/img231/5117/vlcsnap00003li.png&lt;/a&gt; &lt;a href=&quot;\nhttp://img375.imageshack.us/img375/2807/vlcsnap00004y.png&quot; rel=&quot;nofollow&quot; target=&quot;_NEW&quot;&gt;\nhttp://img375.imageshack.us/img375/2807/vlcsnap00004y.png&lt;/a&gt; &lt;a href=&quot;\nhttp://img227.imageshack.us/img227/8225/vlcsnap00005n.png&quot; rel=&quot;nofollow&quot; target=&quot;_NEW&quot;&gt;\nhttp://img227.imageshack.us/img227/8225/vlcsnap00005n.png&lt;/a&gt; &lt;a href=&quot;\nhttp://img145.imageshack.us/img145/5144/vlcsnap00006yl.png&quot; rel=&quot;nofollow&quot; target=&quot;_NEW&quot;&gt;\nhttp://img145.imageshack.us/img145/5144/vlcsnap00006yl.png&lt;/a&gt; &lt;a href=&quot;\nhttp://img191.imageshack.us/img191/7086/vlcsnap00007d.png&quot; rel=&quot;nofollow&quot; target=&quot;_NEW&quot;&gt;\nhttp://img191.imageshack.us/img191/7086/vlcsnap00007d.png&lt;/a&gt; &lt;a href=&quot;\nhttp://img163.imageshack.us/img163/9682/vlcsnap00008s.png&quot; rel=&quot;nofollow&quot; target=&quot;_NEW&quot;&gt;\nhttp://img163.imageshack.us/img163/9682/vlcsnap00008s.png&lt;/a&gt;\n\n\n\n\nPLEASE LET THE TORRENT SEED AND SHARE IT WITH ALL YOU KNOW!\n\nLet me know what I can do to be your trusted source of Handheld videos. &lt;a href=&quot;\nhttp://thepiratebay.se/user/on.off.on/&quot; rel=&quot;nofollow&quot; target=&quot;_NEW&quot;&gt;\nhttp://thepiratebay.se/user/on.off.on/&lt;/a&gt; -OOO","torrent":{"xt":"urn:btih:2282e215125739eebf7c9468a131c03cd46fd611","amp;dn":"The+Tale+of+Despereaux++%28PSP+%2B+Ipod+touch+%2B+Zune%29","amp;tr":["udp%3A%2F%2Ftracker.openbittorrent.com%3A80","udp%3A%2F%2Fopen.demonii.com%3A1337","udp%3A%2F%2Ftracker.coppersurfer.tk%3A6969","udp%3A%2F%2Fexodus.desync.com%3A6969"],"infoHash":"2282e215125739eebf7c9468a131c03cd46fd611","infoHashBuffer":{"type":"Buffer","data":[34,130,226,21,18,87,57,238,191,124,148,104,161,49,192,60,212,111,214,17]},"announce":[],"urlList":[]}}